<?xml version="1.0" encoding="utf-8"?>
<!-- Generator: Adobe Illustrator 22.1.0, SVG Export Plug-In . SVG Version: 6.00 Build 0)  -->
<svg version="1.1" id="Capa_1" xmlns="http://www.w3.org/2000/svg" xmlns:xlink="http://www.w3.org/1999/xlink" x="0px" y="0px"
	 viewBox="0 0 549.3 496.6" style="enable-background:new 0 0 549.3 496.6;" xml:space="preserve">
<style type="text/css">
	.st0{fill:none;stroke:#020201;stroke-width:48;stroke-miterlimit:10;}
</style>
<g>
	<path class="st0" d="M448.8,87.3c-46.6-36.7-108.4-56.9-174.1-56.9S147.1,50.6,100.5,87.3c-47,37.1-72.9,86.5-72.9,139.2
		c0,31.7,9.7,63.2,28.1,91.1c17,25.7,41.4,48.4,70.7,65.9c-1.4,9.5-8.6,37.2-47.8,70.2c-2,1.7-2.8,4.4-2.1,7
		c0.7,2.5,2.9,4.4,5.5,4.7c0.2,0,5.9,0.8,16,0.8c28.8,0,87.8-5.7,159.9-43.9c5.6,0.3,11.2,0.4,16.7,0.4
		c65.7,0,127.5-20.2,174.1-56.9c47-37.1,72.9-86.5,72.9-139.2C521.7,173.9,495.8,124.4,448.8,87.3z"/>
</g>
</svg>
