<?xml version="1.0" encoding="utf-8"?>
<!-- Generator: Adobe Illustrator 22.1.0, SVG Export Plug-In . SVG Version: 6.00 Build 0)  -->
<svg version="1.1" id="Слой_1" xmlns="http://www.w3.org/2000/svg" xmlns:xlink="http://www.w3.org/1999/xlink" x="0px" y="0px"
	 viewBox="0 0 242.7 67" style="enable-background:new 0 0 242.7 67;" xml:space="preserve">
<style type="text/css">
	.st0{enable-background:new    ;}
</style>
<g class="st0">
	<path d="M46.5,12.2l0,53.7h-0.3L10.1,33.3l0.2,30.5L0,63.9l0-53.6l0.4,0l36,33l-0.2-31.1L46.5,12.2z"/>
	<path d="M60.2,24.9c2.4-4.1,5.6-7.3,9.6-9.7c4-2.4,8.4-3.6,13.1-3.6c4.7,0,9.1,1.2,13.1,3.6c4,2.4,7.3,5.6,9.7,9.7
		c2.4,4.1,3.6,8.4,3.6,13.1c0,4.8-1.2,9.2-3.6,13.2c-2.4,4-5.6,7.2-9.7,9.6c-4,2.4-8.4,3.6-13.1,3.6c-4.8,0-9.2-1.2-13.2-3.5
		c-4-2.4-7.2-5.5-9.6-9.6c-2.4-4-3.5-8.4-3.5-13.2C56.6,33.4,57.8,29,60.2,24.9z M69.3,46.3c1.4,2.5,3.4,4.5,5.8,6
		c2.5,1.5,5.2,2.2,8.2,2.2c2.9,0,5.5-0.7,7.9-2.2c2.4-1.5,4.2-3.5,5.6-6c1.4-2.5,2-5.3,2-8.3c0-3.1-0.7-5.9-2.1-8.4s-3.3-4.5-5.7-6
		c-2.4-1.5-5.1-2.2-8-2.2s-5.6,0.7-8,2.2c-2.4,1.5-4.3,3.5-5.7,6c-1.4,2.5-2.1,5.3-2.1,8.4C67.1,41,67.8,43.8,69.3,46.3z"/>
	<path d="M154.6,12l0,9.8l-25,0l0,11l22.1,0l0,9.8l-22.1,0l0,11.1l26,0l0,9.8l-36.2,0.1l0-51.6L154.6,12z M139.7,8.7l-6,0l5.5-9.5
		l10.9,0L139.7,8.7z"/>
	<path d="M219.2,9.8l0,53.7l-10.2,0l0-24.6l-16.8,23.9h-0.1l-16.2-22.3l0,23.1l-9.8,0l0-53.7h0.1L192.3,47l26.8-37.1H219.2z"/>
	<path d="M242.7,11.9l0,51.6l-10.2,0l0-51.6L242.7,11.9z"/>
</g>
</svg>
